<?xml version="1.0" encoding="utf-8"?>
<!-- Generator: Adobe Illustrator 27.5.0, SVG Export Plug-In . SVG Version: 6.00 Build 0)  -->
<svg version="1.1" xmlns="http://www.w3.org/2000/svg" xmlns:xlink="http://www.w3.org/1999/xlink" x="0px" y="0px"
	 viewBox="0 0 872 813.39" style="enable-background:new 0 0 872 813.39;" xml:space="preserve">
<g id="Layer_4">
	<g>
		<g>
			<path style="fill:#FFFFFF;" d="M816.727,727.39c0,22.644-18.356,41-41,41h-281.25c-22.643,0-41-18.356-41-41v-633
				c0-22.644,18.357-41,41-41h281.25c22.644,0,41,18.356,41,41V727.39z"/>
			<path d="M451.977,727.389l-0.002-632.999c0.002-23.472,19.029-42.498,42.502-42.5l0,0h281.25c23.471,0,42.498,19.028,42.498,42.5
				l0,0v632.999h0.002c-0.002,23.472-19.029,42.499-42.5,42.499l0,0l-281.25,0.003C471.005,769.888,451.977,750.86,451.977,727.389
				L451.977,727.389z M494.477,54.89c-10.912,0-20.778,4.418-27.932,11.567l0,0c-7.151,7.153-11.569,17.019-11.569,27.932l0,0
				v632.999c0,10.912,4.418,20.778,11.569,27.931l0,0c7.153,7.151,17.02,11.567,27.932,11.57l0,0l281.25-0.003
				c10.91,0,20.776-4.416,27.93-11.567l0,0c7.151-7.152,11.569-17.019,11.569-27.931l0,0V94.389
				c0-10.913-4.418-20.778-11.569-27.932l0,0c-7.153-7.149-17.019-11.567-27.93-11.57l0,0L494.477,54.89L494.477,54.89z"/>
		</g>
		<rect x="459.602" y="127.031" width="351" height="564.765"/>
		<rect x="460.118" y="128.323" style="fill:#FFFFFF;" width="349.969" height="24.29"/>
		<g>
			<g>
				<g>
					<rect x="468.336" y="140.512" width="2.461" height="4.483"/>
					<rect x="472.301" y="138.059" width="2.461" height="6.936"/>
					<rect x="476.267" y="136.199" width="2.46" height="8.796"/>
					<rect x="480.231" y="134.253" width="2.461" height="10.742"/>
				</g>
				<g>
					<path d="M786.42,135.026v2.11h-1.982v4.975h1.982v2.11h15.449v-9.195H786.42z M801.048,143.318h-13.806v-7.389h13.806V143.318z
						"/>
					<rect x="794.573" y="137.485" width="5.023" height="4.277"/>
				</g>
			</g>
			<g>
				<path d="M739.751,143.19h-0.805v-5.657c-0.194,0.204-0.449,0.408-0.764,0.611c-0.314,0.204-0.598,0.356-0.847,0.459v-0.858
					c0.45-0.233,0.844-0.517,1.181-0.849c0.337-0.332,0.576-0.654,0.715-0.967h0.52V143.19z"/>
				<path d="M744.167,143.19h-0.807v-5.657c-0.193,0.204-0.448,0.408-0.762,0.611c-0.315,0.204-0.598,0.356-0.847,0.459v-0.858
					c0.449-0.233,0.843-0.517,1.181-0.849c0.337-0.332,0.575-0.654,0.715-0.967h0.52V143.19z"/>
				<path d="M746.676,138.964v-1.012h0.917v1.012H746.676z M746.676,143.19v-1.011h0.917v1.011H746.676z"/>
				<path d="M748.778,141.282l0.807-0.119c0.091,0.503,0.249,0.866,0.471,1.088c0.222,0.222,0.493,0.333,0.813,0.333
					c0.378,0,0.698-0.145,0.96-0.434c0.261-0.29,0.391-0.648,0.391-1.076c0-0.407-0.121-0.744-0.362-1.009
					c-0.242-0.265-0.549-0.396-0.921-0.396c-0.152,0-0.343,0.032-0.568,0.099l0.089-0.779c0.054,0.006,0.097,0.01,0.131,0.01
					c0.342,0,0.65-0.099,0.925-0.296c0.274-0.197,0.412-0.502,0.412-0.912c0-0.326-0.1-0.596-0.3-0.811
					c-0.2-0.213-0.459-0.319-0.773-0.319c-0.315,0-0.574,0.107-0.783,0.324c-0.209,0.218-0.344,0.544-0.403,0.978l-0.805-0.158
					c0.099-0.595,0.322-1.056,0.671-1.383c0.349-0.327,0.782-0.491,1.302-0.491c0.357,0,0.688,0.084,0.988,0.254
					c0.302,0.169,0.532,0.401,0.691,0.693c0.159,0.292,0.239,0.604,0.239,0.932c0,0.313-0.076,0.597-0.227,0.854
					c-0.154,0.257-0.379,0.46-0.677,0.612c0.387,0.099,0.689,0.304,0.903,0.614c0.214,0.311,0.323,0.699,0.323,1.165
					c0,0.633-0.209,1.168-0.628,1.605c-0.417,0.44-0.945,0.659-1.583,0.659c-0.576,0-1.053-0.189-1.434-0.566
					C749.05,142.373,748.833,141.884,748.778,141.282z"/>
				<path d="M753.87,141.296l0.845-0.079c0.063,0.455,0.209,0.796,0.436,1.025c0.229,0.229,0.504,0.343,0.827,0.343
					c0.388,0,0.715-0.161,0.983-0.483c0.268-0.322,0.404-0.75,0.404-1.282c0-0.507-0.129-0.906-0.388-1.198
					c-0.258-0.294-0.597-0.44-1.014-0.44c-0.26,0-0.493,0.065-0.702,0.195c-0.208,0.129-0.373,0.298-0.492,0.504l-0.756-0.107
					l0.636-3.714h3.261v0.848h-2.616l-0.355,1.944c0.395-0.304,0.808-0.454,1.239-0.454c0.573,0,1.057,0.219,1.45,0.655
					c0.394,0.438,0.59,1,0.59,1.688c0,0.654-0.173,1.22-0.52,1.697c-0.421,0.584-0.994,0.878-1.721,0.878
					c-0.597,0-1.084-0.185-1.461-0.553C754.139,142.393,753.923,141.905,753.87,141.296z"/>
				<path d="M761.116,143.19l2.52-7.23h0.935l2.684,7.23h-0.989l-0.764-2.19h-2.742l-0.721,2.19H761.116z M763.008,140.221h2.224
					l-0.684-2.002c-0.208-0.608-0.364-1.108-0.466-1.5c-0.083,0.464-0.201,0.924-0.354,1.382L763.008,140.221z"/>
				<path d="M767.921,143.19v-7.23h1.306l1.552,5.119c0.144,0.477,0.248,0.834,0.315,1.071c0.073-0.264,0.189-0.65,0.348-1.159
					l1.569-5.031h1.169v7.23h-0.836v-6.052l-1.907,6.052h-0.782l-1.897-6.155v6.155H767.921z"/>
			</g>
		</g>
		<g>
			<path d="M494.478,762.891c-19.577,0-35.501-15.926-35.503-35.5l0,0l0.002-633.001c0-19.577,15.924-35.5,35.501-35.5l0,0h281.248
				c19.576,0,35.5,15.923,35.502,35.5l0,0v633.001c-0.002,19.574-15.926,35.5-35.502,35.5l0,0v-0.5v-0.5
				c9.513,0,18.134-3.868,24.385-10.116l0,0c6.247-6.25,10.115-14.872,10.115-24.384l0,0l0.002-633.001
				c-0.002-9.513-3.87-18.136-10.117-24.384l0,0c-6.251-6.248-14.872-10.116-24.385-10.116l0,0H494.478
				c-9.513,0-18.137,3.868-24.385,10.116l0,0c-6.248,6.248-10.118,14.872-10.118,24.384l0,0v633.001
				c0,9.512,3.87,18.134,10.118,24.384l0,0c6.248,6.248,14.872,10.116,24.385,10.116l0,0h281.248v0.5v0.5H494.478L494.478,762.891z"
				/>
		</g>
		<g>
			<path d="M563.436,85.277c0.002-3.728,3.024-6.749,6.753-6.749l0,0c3.727,0,6.749,3.021,6.751,6.749l0,0h-0.002
				c0,3.73-3.022,6.751-6.749,6.751l0,0C566.461,92.028,563.438,89.007,563.436,85.277L563.436,85.277z M564.436,85.277
				c0.006,3.177,2.576,5.747,5.753,5.751l0,0c3.175-0.004,5.745-2.574,5.751-5.751l0,0h-0.002c-0.004-3.175-2.574-5.743-5.749-5.749
				l0,0C567.013,79.534,564.442,82.102,564.436,85.277L564.436,85.277z"/>
		</g>
		<path d="M573.667,85.278c0,1.921-1.557,3.478-3.477,3.478c-1.921,0-3.478-1.557-3.478-3.478c0-1.92,1.557-3.478,3.478-3.478
			C572.11,81.8,573.667,83.357,573.667,85.278z"/>
		<path style="fill:#FFFFFF;" d="M571.477,85.278c0,0.712-0.576,1.289-1.288,1.289c-0.712,0-1.288-0.577-1.288-1.289
			c0-0.711,0.576-1.288,1.288-1.288C570.901,83.99,571.477,84.566,571.477,85.278z"/>
		<g>
			<path d="M597.517,92.278c-3.867,0-7.001-3.134-7.001-7.002l0,0c0-3.865,3.134-6.999,7.001-6.999l0,0h75.171
				c3.865,0,6.999,3.134,6.999,6.999l0,0h0.002c-0.002,3.867-3.136,7.002-7.001,7.002l0,0H597.517L597.517,92.278z M591.517,85.277
				c0.005,3.315,2.685,5.995,6,6.002l0,0h75.171c3.313-0.006,5.993-2.686,5.999-6.002l0,0c-0.006-3.314-2.685-5.994-5.999-6l0,0
				h-75.171C594.201,79.283,591.521,81.963,591.517,85.277L591.517,85.277z"/>
		</g>
		<path d="M672.688,88.86h-75.172c-1.389,0-2.521-1.37-2.521-3.053c0-1.681,1.132-3.05,2.521-3.05h75.172
			c1.391,0,2.523,1.37,2.523,3.05C675.21,87.49,674.078,88.86,672.688,88.86L672.688,88.86z"/>
		<path d="M635.103,729.028c0.591,0,1.067-0.48,1.067-1.068v-13.596c0-0.592-0.477-1.069-1.067-1.069
			c-0.591,0-1.068,0.478-1.068,1.069v13.596C634.035,728.548,634.513,729.028,635.103,729.028z M641.647,718.508
			c-0.514-0.289-1.166-0.106-1.454,0.406c-0.29,0.515-0.108,1.167,0.406,1.456h-0.002c3.42,1.925,5.727,5.583,5.725,9.786
			c-0.012,6.194-5.022,11.207-11.22,11.217c-6.195-0.01-11.207-5.023-11.219-11.217c-0.002-4.152,2.25-7.773,5.601-9.716
			c0.51-0.296,0.685-0.949,0.388-1.46c-0.295-0.512-0.949-0.684-1.46-0.388c-3.985,2.307-6.667,6.623-6.667,11.564
			c0,7.375,5.981,13.354,13.357,13.356c7.377-0.002,13.357-5.981,13.357-13.356C648.459,725.156,645.714,720.795,641.647,718.508z"
			/>
	</g>
</g>
<g id="Layer_2">
	<g>
		<linearGradient id="SVGID_1_" gradientUnits="userSpaceOnUse" x1="138.8018" y1="55.2646" x2="138.8018" y2="52.0561">
			<stop  offset="0.5864" style="stop-color:#000000"/>
			<stop  offset="1" style="stop-color:#313940"/>
		</linearGradient>
		<rect x="111.927" y="51.39" style="fill:url(#SVGID_1_);" width="53.75" height="9.625"/>
		
			<radialGradient id="SVGID_00000044171943810438637600000015807225178424863368_" cx="240.1768" cy="410.8896" r="283.5435" gradientUnits="userSpaceOnUse">
			<stop  offset="0.3089" style="stop-color:#000000"/>
			<stop  offset="1" style="stop-color:#313940"/>
		</radialGradient>
		<path style="fill:url(#SVGID_00000044171943810438637600000015807225178424863368_);" d="M421.802,727.39
			c0,22.644-18.357,41-41,41H99.552c-22.644,0-41-18.356-41-41v-633c0-22.644,18.356-41,41-41h281.25c22.643,0,41,18.356,41,41
			V727.39z"/>
		
			<linearGradient id="SVGID_00000052094781774548653650000005562345692942968254_" gradientUnits="userSpaceOnUse" x1="240.1767" y1="766.9912" x2="240.1767" y2="49.3473">
			<stop  offset="0" style="stop-color:#000000"/>
			<stop  offset="0.733" style="stop-color:#000000"/>
			<stop  offset="0.8063" style="stop-color:#576473"/>
			<stop  offset="0.9791" style="stop-color:#FFFFFF"/>
		</linearGradient>
		<path style="fill:url(#SVGID_00000052094781774548653650000005562345692942968254_);" d="M380.801,766.991H99.552
			c-21.835,0-39.601-17.766-39.601-39.602v-633c0-21.835,17.766-39.601,39.601-39.601h281.249c21.836,0,39.602,17.766,39.602,39.601
			v633C420.402,749.225,402.637,766.991,380.801,766.991L380.801,766.991z"/>
		
			<linearGradient id="SVGID_00000067234650030262215690000018402958557614622384_" gradientUnits="userSpaceOnUse" x1="240.1767" y1="52.2607" x2="240.1767" y2="768.4841">
			<stop  offset="0.8115" style="stop-color:#000000"/>
			<stop  offset="0.9948" style="stop-color:#FFFFFF"/>
		</linearGradient>
		<path style="fill:url(#SVGID_00000067234650030262215690000018402958557614622384_);" d="M380.801,767.033H99.554
			c-20.734,0-37.602-16.942-37.602-37.768V93.556c0-20.826,16.867-37.767,37.602-37.767h281.247
			c20.733,0,37.601,16.941,37.601,37.767v635.71C418.401,750.092,401.534,767.033,380.801,767.033L380.801,767.033z"/>
		<path d="M381.703,765.474H98.65c-19.423,0-35.224-15.809-35.224-35.236V93.125c0-19.428,15.801-35.235,35.224-35.235h283.053
			c19.422,0,35.224,15.807,35.224,35.235v637.112C416.927,749.665,401.125,765.474,381.703,765.474L381.703,765.474z"/>
		<rect x="63.427" y="127.031" style="fill:#FFFFFF;" width="353.5" height="564.765"/>
		<rect x="63.427" y="126.635" style="fill:#5E6B79;" width="353.5" height="25.978"/>
		<rect x="63.427" y="126.635" style="fill:#FFFFFF;" width="353.5" height="0.818"/>
		<g>
			<g>
				<rect x="73.41" y="140.512" style="fill:#FFFFFF;" width="2.461" height="4.483"/>
				<rect x="77.375" y="138.059" style="fill:#FFFFFF;" width="2.461" height="6.936"/>
				<rect x="81.341" y="136.199" style="fill:#FFFFFF;" width="2.46" height="8.796"/>
				<rect x="85.306" y="134.253" style="fill:#FFFFFF;" width="2.461" height="10.742"/>
			</g>
			<g>
				<path style="fill:#FFFFFF;" d="M391.494,135.026v2.11h-1.982v4.975h1.982v2.11h15.449v-9.195H391.494z M406.122,143.318h-13.806
					v-7.389h13.806V143.318z"/>
				<rect x="399.647" y="137.485" style="fill:#FFFFFF;" width="5.023" height="4.277"/>
			</g>
		</g>
		<g>
			<path style="fill:#FFFFFF;" d="M344.825,143.19h-0.805v-5.657c-0.194,0.204-0.449,0.408-0.764,0.611
				c-0.314,0.204-0.598,0.356-0.847,0.459v-0.858c0.45-0.233,0.844-0.517,1.181-0.849c0.337-0.332,0.576-0.654,0.715-0.967h0.52
				V143.19z"/>
			<path style="fill:#FFFFFF;" d="M349.241,143.19h-0.807v-5.657c-0.193,0.204-0.448,0.408-0.762,0.611
				c-0.315,0.204-0.598,0.356-0.847,0.459v-0.858c0.449-0.233,0.843-0.517,1.181-0.849c0.337-0.332,0.575-0.654,0.715-0.967h0.52
				V143.19z"/>
			<path style="fill:#FFFFFF;" d="M351.75,138.964v-1.012h0.917v1.012H351.75z M351.75,143.19v-1.011h0.917v1.011H351.75z"/>
			<path style="fill:#FFFFFF;" d="M353.852,141.282l0.807-0.119c0.091,0.503,0.249,0.866,0.471,1.088
				c0.222,0.222,0.493,0.333,0.813,0.333c0.378,0,0.698-0.145,0.96-0.434c0.261-0.29,0.391-0.648,0.391-1.076
				c0-0.407-0.121-0.744-0.362-1.009c-0.242-0.265-0.549-0.396-0.921-0.396c-0.152,0-0.343,0.032-0.568,0.099l0.089-0.779
				c0.054,0.006,0.097,0.01,0.131,0.01c0.342,0,0.65-0.099,0.925-0.296c0.275-0.197,0.412-0.502,0.412-0.912
				c0-0.326-0.1-0.596-0.3-0.811c-0.2-0.213-0.459-0.319-0.773-0.319c-0.314,0-0.574,0.107-0.783,0.324
				c-0.209,0.218-0.344,0.544-0.403,0.978l-0.805-0.158c0.099-0.595,0.322-1.056,0.671-1.383c0.349-0.327,0.782-0.491,1.302-0.491
				c0.357,0,0.688,0.084,0.988,0.254c0.302,0.169,0.532,0.401,0.691,0.693c0.159,0.292,0.239,0.604,0.239,0.932
				c0,0.313-0.076,0.597-0.227,0.854c-0.154,0.257-0.379,0.46-0.677,0.612c0.387,0.099,0.689,0.304,0.903,0.614
				c0.214,0.311,0.323,0.699,0.323,1.165c0,0.633-0.209,1.168-0.628,1.605c-0.417,0.44-0.945,0.659-1.583,0.659
				c-0.576,0-1.053-0.189-1.434-0.566C354.124,142.373,353.907,141.884,353.852,141.282z"/>
			<path style="fill:#FFFFFF;" d="M358.944,141.296l0.845-0.079c0.063,0.455,0.209,0.796,0.435,1.025
				c0.229,0.229,0.504,0.343,0.827,0.343c0.388,0,0.715-0.161,0.982-0.483c0.269-0.322,0.404-0.75,0.404-1.282
				c0-0.507-0.129-0.906-0.388-1.198c-0.258-0.294-0.597-0.44-1.014-0.44c-0.26,0-0.493,0.065-0.702,0.195
				c-0.208,0.129-0.373,0.298-0.492,0.504l-0.756-0.107l0.636-3.714h3.261v0.848h-2.616l-0.354,1.944
				c0.395-0.304,0.808-0.454,1.239-0.454c0.573,0,1.057,0.219,1.45,0.655c0.394,0.438,0.59,1,0.59,1.688
				c0,0.654-0.173,1.22-0.52,1.697c-0.421,0.584-0.994,0.878-1.721,0.878c-0.597,0-1.084-0.185-1.461-0.553
				C359.213,142.393,358.997,141.905,358.944,141.296z"/>
			<path style="fill:#FFFFFF;" d="M366.19,143.19l2.52-7.23h0.935l2.684,7.23h-0.989l-0.764-2.19h-2.742l-0.721,2.19H366.19z
				 M368.082,140.221h2.224l-0.684-2.002c-0.208-0.608-0.364-1.108-0.466-1.5c-0.083,0.464-0.201,0.924-0.354,1.382L368.082,140.221
				z"/>
			<path style="fill:#FFFFFF;" d="M372.995,143.19v-7.23h1.306l1.552,5.119c0.144,0.477,0.248,0.834,0.315,1.071
				c0.073-0.264,0.189-0.65,0.348-1.159l1.569-5.031h1.169v7.23h-0.836v-6.052l-1.907,6.052h-0.782l-1.897-6.155v6.155H372.995z"/>
		</g>
		<g>
			<g>
				
					<radialGradient id="SVGID_00000117656524398632647150000013027007109222497207_" cx="175.2636" cy="91.5095" r="12.8991" gradientUnits="userSpaceOnUse">
					<stop  offset="0.2775" style="stop-color:#FFFFFF"/>
					<stop  offset="1" style="stop-color:#585553"/>
				</radialGradient>
				<path style="fill:url(#SVGID_00000117656524398632647150000013027007109222497207_);" d="M181.515,85.278
					c0,3.453-2.799,6.251-6.251,6.251c-3.452,0-6.251-2.798-6.251-6.251c0-3.452,2.799-6.25,6.251-6.25
					C178.716,79.028,181.515,81.826,181.515,85.278z"/>
				
					<radialGradient id="SVGID_00000058562939344031872830000002914075812750562723_" cx="193.3256" cy="178.0764" r="11.7162" gradientTransform="matrix(0.92 0.3918 -0.3918 0.92 64.957 -149.0902)" gradientUnits="userSpaceOnUse">
					<stop  offset="0" style="stop-color:#FFFFFF"/>
					<stop  offset="1" style="stop-color:#2F2E2D"/>
				</radialGradient>
				<path style="fill:url(#SVGID_00000058562939344031872830000002914075812750562723_);" d="M180.487,87.502
					c-1.229,2.884-4.563,4.227-7.447,2.999c-2.885-1.229-4.229-4.563-3-7.447c1.229-2.884,4.564-4.228,7.447-2.999
					C180.372,81.284,181.716,84.619,180.487,87.502z"/>
			</g>
			<g>
				
					<radialGradient id="SVGID_00000089557324232733201430000003218120807790587537_" cx="175.2636" cy="88.7456" r="7.1761" gradientUnits="userSpaceOnUse">
					<stop  offset="0.3298" style="stop-color:#FFFFFF"/>
					<stop  offset="1" style="stop-color:#54514F"/>
				</radialGradient>
				<path style="fill:url(#SVGID_00000089557324232733201430000003218120807790587537_);" d="M178.741,85.278
					c0,1.921-1.557,3.478-3.478,3.478c-1.921,0-3.478-1.557-3.478-3.478c0-1.92,1.557-3.478,3.478-3.478
					C177.185,81.8,178.741,83.357,178.741,85.278z"/>
				
					<radialGradient id="SVGID_00000036959339334644479980000017098971095497821578_" cx="175.2636" cy="85.3723" r="2.9206" gradientUnits="userSpaceOnUse">
					<stop  offset="0.5079" style="stop-color:#FFFFFF"/>
					<stop  offset="1" style="stop-color:#000000"/>
				</radialGradient>
				<path style="fill:url(#SVGID_00000036959339334644479980000017098971095497821578_);" d="M178.27,85.278
					c0,1.661-1.346,3.007-3.007,3.007c-1.661,0-3.007-1.346-3.007-3.007c0-1.66,1.346-3.006,3.007-3.006
					C176.925,82.271,178.27,83.618,178.27,85.278z"/>
				<path d="M176.552,85.278c0,0.712-0.576,1.289-1.288,1.289c-0.712,0-1.288-0.577-1.288-1.289c0-0.711,0.576-1.288,1.288-1.288
					C175.976,83.99,176.552,84.566,176.552,85.278z"/>
			</g>
		</g>
		<defs>
			<filter id="Adobe_OpacityMaskFilter" filterUnits="userSpaceOnUse" x="229.134" y="58.39" width="187.793" height="660.501">
				<feColorMatrix  type="matrix" values="1 0 0 0 0  0 1 0 0 0  0 0 1 0 0  0 0 0 1 0"/>
			</filter>
		</defs>
		
			<mask maskUnits="userSpaceOnUse" x="229.134" y="58.39" width="187.793" height="660.501" id="SVGID_00000115500101803900590510000008865442419644087194_">
			<g style="filter:url(#Adobe_OpacityMaskFilter);">
				
					<linearGradient id="SVGID_00000166666036365236669900000015257982632459649698_" gradientUnits="userSpaceOnUse" x1="527.6095" y1="699.2827" x2="268.2989" y2="5.2892">
					<stop  offset="0.0052" style="stop-color:#000000"/>
					<stop  offset="0.6178" style="stop-color:#CCD0D5"/>
					<stop  offset="1" style="stop-color:#E4E5E7"/>
				</linearGradient>
				<path style="fill:url(#SVGID_00000166666036365236669900000015257982632459649698_);" d="M381.703,58.39H229.134
					l187.793,660.502V93.598C416.927,74.185,401.125,58.39,381.703,58.39z"/>
			</g>
		</mask>
		<path style="opacity:0.6;mask:url(#SVGID_00000115500101803900590510000008865442419644087194_);fill:#FFFFFF;" d="M381.703,58.39
			H229.134l187.793,660.502V93.598C416.927,74.185,401.125,58.39,381.703,58.39z"/>
		
			<linearGradient id="SVGID_00000056422506796415390090000016413292109253961387_" gradientUnits="userSpaceOnUse" x1="240.1767" y1="93.2231" x2="240.1767" y2="77.1396">
			<stop  offset="0.2775" style="stop-color:#FFFFFF"/>
			<stop  offset="1" style="stop-color:#898482"/>
		</linearGradient>
		<path style="fill:url(#SVGID_00000056422506796415390090000016413292109253961387_);" d="M277.762,92.778h-75.171
			c-4.136,0-7.5-3.365-7.5-7.5c0-4.135,3.364-7.5,7.5-7.5h75.171c4.136,0,7.501,3.365,7.501,7.5
			C285.263,89.413,281.897,92.778,277.762,92.778L277.762,92.778z"/>
		
			<linearGradient id="SVGID_00000000910877285861626750000013000037742626702245_" gradientUnits="userSpaceOnUse" x1="240.1767" y1="78.3468" x2="240.1767" y2="91.9773">
			<stop  offset="0" style="stop-color:#000000"/>
			<stop  offset="0.8534" style="stop-color:#FFFFFF"/>
		</linearGradient>
		<path style="fill:url(#SVGID_00000000910877285861626750000013000037742626702245_);" d="M284.263,85.278c0,3.59-2.91,6.5-6.5,6.5
			h-75.172c-3.59,0-6.5-2.91-6.5-6.5l0,0c0-3.59,2.91-6.5,6.5-6.5h75.172C281.352,78.778,284.263,81.688,284.263,85.278
			L284.263,85.278z"/>
		<path d="M202.591,84.747h75.172c2.513,0,4.689,1.428,5.771,3.515c0.464-0.894,0.729-1.908,0.729-2.985c0-3.59-2.91-6.5-6.5-6.5
			h-75.172c-3.59,0-6.5,2.91-6.5,6.5c0,1.077,0.266,2.091,0.73,2.985C197.902,86.176,200.077,84.747,202.591,84.747z"/>
		
			<linearGradient id="SVGID_00000124131488262282911280000017508144412103736479_" gradientUnits="userSpaceOnUse" x1="240.1767" y1="88.8598" x2="240.1767" y2="82.4783">
			<stop  offset="0" style="stop-color:#666B69"/>
			<stop  offset="1" style="stop-color:#CCD0D5"/>
		</linearGradient>
		<path style="fill:url(#SVGID_00000124131488262282911280000017508144412103736479_);" d="M277.762,88.86H202.59
			c-1.389,0-2.521-1.37-2.521-3.053c0-1.681,1.132-3.05,2.521-3.05h75.172c1.391,0,2.522,1.37,2.522,3.05
			C280.284,87.49,279.152,88.86,277.762,88.86L277.762,88.86z"/>
		
			<linearGradient id="SVGID_00000157289819918103832360000012479532851887496633_" gradientUnits="userSpaceOnUse" x1="255.1306" y1="758.288" x2="231.2495" y2="713.3598">
			<stop  offset="0" style="stop-color:#4D4E4F"/>
			<stop  offset="0.9948" style="stop-color:#FFFFFF"/>
		</linearGradient>
		<path style="fill:url(#SVGID_00000157289819918103832360000012479532851887496633_);" d="M240.178,729.028
			c0.591,0,1.067-0.48,1.067-1.068v-13.596c0-0.592-0.476-1.069-1.067-1.069c-0.591,0-1.068,0.478-1.068,1.069v13.596
			C239.109,728.548,239.587,729.028,240.178,729.028z M246.722,718.508c-0.514-0.289-1.166-0.106-1.454,0.406
			c-0.29,0.515-0.108,1.167,0.406,1.456h-0.002c3.42,1.925,5.727,5.583,5.725,9.786c-0.012,6.194-5.023,11.207-11.22,11.217
			c-6.195-0.01-11.207-5.023-11.219-11.217c-0.002-4.152,2.25-7.773,5.601-9.716c0.51-0.296,0.685-0.949,0.388-1.46
			c-0.295-0.512-0.949-0.684-1.46-0.388c-3.985,2.307-6.667,6.623-6.667,11.564c0,7.375,5.98,13.354,13.357,13.356
			c7.377-0.002,13.356-5.981,13.356-13.356C253.533,725.156,250.788,720.795,246.722,718.508z"/>
	</g>
</g>
</svg>
