<?xml version="1.0" encoding="utf-8"?>
<!-- Generator: Adobe Illustrator 27.5.0, SVG Export Plug-In . SVG Version: 6.00 Build 0)  -->
<svg version="1.1" id="Layer_1" xmlns="http://www.w3.org/2000/svg" xmlns:xlink="http://www.w3.org/1999/xlink" x="0px" y="0px"
	 viewBox="0 0 203.5 198.25" style="enable-background:new 0 0 203.5 198.25;" xml:space="preserve">
<g>
	<g>
		<g>
			<g>
				<linearGradient id="SVGID_1_" gradientUnits="userSpaceOnUse" x1="65.2221" y1="-35.3809" x2="65.2221" y2="235.3031">
					<stop  offset="0" style="stop-color:#333333"/>
					<stop  offset="0.2859" style="stop-color:#292929"/>
					<stop  offset="0.7654" style="stop-color:#0F0F0F"/>
					<stop  offset="1" style="stop-color:#000000"/>
				</linearGradient>
				<path style="fill:url(#SVGID_1_);" d="M128.699,190.898v-20.105l0,0v-38.441V56.355V8.34c0-5.93-5.807-5.873-5.807-5.873H7.552
					c0,0-5.807-0.057-5.807,5.873v48.016v75.996v58.547c0,5.93,5.807,5.873,5.807,5.873h115.34
					C122.892,196.771,128.699,196.828,128.699,190.898z"/>
				<g>
					<g style="opacity:0.6;">
						
							<linearGradient id="SVGID_00000110466809389917361430000005385936890229538961_" gradientUnits="userSpaceOnUse" x1="127.3345" y1="223.8015" x2="6.9459" y2="44.9842">
							<stop  offset="7.772600e-04" style="stop-color:#676767"/>
							<stop  offset="0.169" style="stop-color:#5D5D5D"/>
							<stop  offset="0.452" style="stop-color:#434343"/>
							<stop  offset="0.813" style="stop-color:#191919"/>
							<stop  offset="1" style="stop-color:#000000"/>
						</linearGradient>
						<path style="fill:url(#SVGID_00000110466809389917361430000005385936890229538961_);" d="M3.042,189.033
							c0,5.811,5.688,5.756,5.688,5.756h21.156l97.517-64.953V72.023L3.042,154.854V189.033z"/>
						
							<linearGradient id="SVGID_00000150090300307430821670000014197894578746071966_" gradientUnits="userSpaceOnUse" x1="165.8771" y1="197.8276" x2="45.5021" y2="19.0307">
							<stop  offset="7.772600e-04" style="stop-color:#676767"/>
							<stop  offset="0.169" style="stop-color:#5D5D5D"/>
							<stop  offset="0.452" style="stop-color:#434343"/>
							<stop  offset="0.813" style="stop-color:#191919"/>
							<stop  offset="1" style="stop-color:#000000"/>
						</linearGradient>
						<polygon style="fill:url(#SVGID_00000150090300307430821670000014197894578746071966_);" points="3.042,70.006 3.042,83.289 
							121.408,4.449 101.466,4.449 						"/>
					</g>
				</g>
				<rect x="6.18" y="10.447" style="fill:#FFFFFF;" width="118.085" height="165.877"/>
				<polygon style="fill:#FFFFFF;" points="6.18,176.324 6.18,10.447 6.575,175.934 123.53,175.492 124.265,10.447 124.265,176.324 
									"/>
			</g>
			<path style="fill:#FFFFFF;" d="M123.545,3.109c0,0-17.121,0.024-42.802,0.062C67.903,3.19,52.922,3.211,36.872,3.234
				c-8.025-0.012-16.318-0.023-24.745-0.036c-1.054-0.001-2.109-0.003-3.166-0.005C7.9,3.145,6.856,3.276,5.871,3.657
				c-0.977,0.374-1.864,1.01-2.454,1.88c-0.601,0.865-0.87,1.922-0.934,2.972c-0.007,4.262-0.014,8.541-0.02,12.819
				C2.43,89.812,2.398,158.295,2.398,158.295S2.366,89.812,2.333,21.328c0.003-4.281,0.006-8.563,0.009-12.827
				c0.062-1.068,0.333-2.153,0.95-3.049c0.605-0.9,1.522-1.558,2.521-1.943C6.809,3.115,7.91,2.977,8.96,3.025
				c1.057-0.002,2.112-0.004,3.166-0.005c8.427-0.013,16.72-0.024,24.745-0.036c16.051,0.023,31.031,0.045,43.872,0.063
				C106.424,3.085,123.545,3.109,123.545,3.109z"/>
		</g>
		<path style="fill:#292929;" d="M70.516,4.975c0,0.289-0.235,0.525-0.524,0.525h-9.538c-0.29,0-0.525-0.236-0.525-0.525l0,0
			c0-0.289,0.235-0.525,0.525-0.525h9.538C70.281,4.449,70.516,4.686,70.516,4.975L70.516,4.975z"/>
	</g>
	<g>
		
			<linearGradient id="SVGID_00000096765197313497373700000015986790565516329119_" gradientUnits="userSpaceOnUse" x1="65.2221" y1="188.7818" x2="65.2221" y2="165.0142">
			<stop  offset="0" style="stop-color:#333333"/>
			<stop  offset="0.2859" style="stop-color:#292929"/>
			<stop  offset="0.7654" style="stop-color:#0F0F0F"/>
			<stop  offset="1" style="stop-color:#000000"/>
		</linearGradient>
		<path style="fill:url(#SVGID_00000096765197313497373700000015986790565516329119_);" d="M69.879,183.975
			c0,2.572-2.085,4.656-4.657,4.656c-2.572,0-4.657-2.084-4.657-4.656c0-2.574,2.085-4.658,4.657-4.658
			C67.794,179.316,69.879,181.4,69.879,183.975z"/>
		
			<linearGradient id="SVGID_00000078747948072607760770000003176613721243952818_" gradientUnits="userSpaceOnUse" x1="64.2011" y1="179.787" x2="66.1621" y2="187.825">
			<stop  offset="0" style="stop-color:#333333"/>
			<stop  offset="0.2859" style="stop-color:#292929"/>
			<stop  offset="0.7654" style="stop-color:#0F0F0F"/>
			<stop  offset="1" style="stop-color:#000000"/>
		</linearGradient>
		<path style="fill:url(#SVGID_00000078747948072607760770000003176613721243952818_);" d="M69.492,183.975
			c0,2.357-1.911,4.268-4.27,4.268c-2.358,0-4.269-1.91-4.269-4.268c0-2.359,1.91-4.271,4.269-4.271
			C67.581,179.703,69.492,181.615,69.492,183.975z"/>
	</g>
</g>
<g>
	<g>
		<path d="M200.842,57.841c0-3.029-2.965-2.999-2.965-2.999h-27.825h-16.449h-14.609c0,0-2.965-0.03-2.965,2.999v10.265l0,0v122.906
			c0,3.028,2.965,2.998,2.965,2.998h27.824h16.448h14.611c0,0,2.965,0.03,2.965-2.998V81.366l0,0V57.841z"/>
		
			<linearGradient id="SVGID_00000129926813185936488370000005123924471980078471_" gradientUnits="userSpaceOnUse" x1="136.5718" y1="124.1719" x2="200.2993" y2="124.1719">
			<stop  offset="0" style="stop-color:#333333"/>
			<stop  offset="0.2859" style="stop-color:#292929"/>
			<stop  offset="0.7654" style="stop-color:#0F0F0F"/>
			<stop  offset="1" style="stop-color:#000000"/>
		</linearGradient>
		<path style="fill:url(#SVGID_00000129926813185936488370000005123924471980078471_);" d="M200.299,58.381
			c0-2.991-2.915-2.963-2.915-2.963h-27.36h-16.172h-14.365c0,0-2.915-0.028-2.915,2.963v10.142l0,0v121.44
			c0,2.991,2.915,2.963,2.915,2.963h27.358h16.172h14.367c0,0,2.914,0.028,2.914-2.963V81.627h0.001V58.381z"/>
		
			<linearGradient id="SVGID_00000042715754482657097210000014991961153494533801_" gradientUnits="userSpaceOnUse" x1="136.5718" y1="124.1719" x2="200.2993" y2="124.1719">
			<stop  offset="0" style="stop-color:#333333"/>
			<stop  offset="0.2859" style="stop-color:#292929"/>
			<stop  offset="0.7654" style="stop-color:#0F0F0F"/>
			<stop  offset="1" style="stop-color:#000000"/>
		</linearGradient>
		<path style="fill:url(#SVGID_00000042715754482657097210000014991961153494533801_);" d="M200.299,58.381
			c0-2.991-2.915-2.963-2.915-2.963h-27.36h-16.172h-14.365c0,0-2.915-0.028-2.915,2.963v10.142l0,0v121.44
			c0,2.991,2.915,2.963,2.915,2.963h27.358h16.172h14.367c0,0,2.914,0.028,2.914-2.963V81.627h0.001V58.381z"/>
		<path style="fill:#292929;" d="M172.976,57.519c0,0.249-0.201,0.451-0.45,0.451h-8.182c-0.248,0-0.45-0.202-0.45-0.451l0,0
			c0-0.247,0.202-0.45,0.45-0.45h8.182C172.775,57.068,172.976,57.271,172.976,57.519L172.976,57.519z"/>
		<g>
			
				<linearGradient id="SVGID_00000161610891125214715080000010650175896795349909_" gradientUnits="userSpaceOnUse" x1="166.956" y1="191.8924" x2="166.956" y2="166.8391">
				<stop  offset="0" style="stop-color:#333333"/>
				<stop  offset="0.2859" style="stop-color:#292929"/>
				<stop  offset="0.7654" style="stop-color:#0F0F0F"/>
				<stop  offset="1" style="stop-color:#000000"/>
			</linearGradient>
			<path style="fill:url(#SVGID_00000161610891125214715080000010650175896795349909_);" d="M171.866,186.825
				c0,2.713-2.198,4.908-4.909,4.908c-2.712,0-4.91-2.195-4.91-4.908c0-2.713,2.198-4.91,4.91-4.91
				C169.667,181.915,171.866,184.112,171.866,186.825z"/>
			
				<linearGradient id="SVGID_00000013167091581565057480000003558041444125180067_" gradientUnits="userSpaceOnUse" x1="165.8799" y1="182.4136" x2="167.9462" y2="190.8836">
				<stop  offset="0" style="stop-color:#333333"/>
				<stop  offset="0.2859" style="stop-color:#292929"/>
				<stop  offset="0.7654" style="stop-color:#0F0F0F"/>
				<stop  offset="1" style="stop-color:#000000"/>
			</linearGradient>
			<path style="fill:url(#SVGID_00000013167091581565057480000003558041444125180067_);" d="M171.456,186.825
				c0,2.483-2.014,4.498-4.499,4.498c-2.486,0-4.5-2.015-4.5-4.498c0-2.485,2.014-4.5,4.5-4.5
				C169.442,182.325,171.456,184.34,171.456,186.825z"/>
		</g>
		<g>
			
				<linearGradient id="SVGID_00000031929116488703940180000017372002142422410635_" gradientUnits="userSpaceOnUse" x1="168.435" y1="196.2837" x2="168.435" y2="8.0461">
				<stop  offset="7.772600e-04" style="stop-color:#676767"/>
				<stop  offset="0.169" style="stop-color:#5D5D5D"/>
				<stop  offset="0.452" style="stop-color:#434343"/>
				<stop  offset="0.813" style="stop-color:#191919"/>
				<stop  offset="1" style="stop-color:#000000"/>
			</linearGradient>
			<polygon style="fill:url(#SVGID_00000031929116488703940180000017372002142422410635_);" points="136.572,184.052 
				200.298,140.269 200.298,113.125 136.572,156.91 			"/>
			
				<linearGradient id="SVGID_00000000208917150972636000000008444380662337695664_" gradientUnits="userSpaceOnUse" x1="168.4287" y1="196.286" x2="168.4287" y2="8.0428">
				<stop  offset="7.772600e-04" style="stop-color:#676767"/>
				<stop  offset="0.169" style="stop-color:#5D5D5D"/>
				<stop  offset="0.452" style="stop-color:#434343"/>
				<stop  offset="0.813" style="stop-color:#191919"/>
				<stop  offset="1" style="stop-color:#000000"/>
			</linearGradient>
			<path style="fill:url(#SVGID_00000000208917150972636000000008444380662337695664_);" d="M197.384,55.418h-4.638l-56.175,38.596
				v7.927l63.714-43.775C200.143,55.399,197.384,55.418,197.384,55.418z"/>
		</g>
		<rect x="137.888" y="59.406" style="fill:#FFFFFF;" width="61.093" height="120.833"/>
	</g>
	<path style="fill:#FFFFFF;" d="M193.02,55.418l-26.539,0.062l-13.27,0.03l-13.271-0.03h-0.005
		c-0.929-0.039-1.937,0.224-2.581,0.922c-0.662,0.704-0.77,1.721-0.733,2.666l-0.002,5.762l-0.008,11.522l-0.013,23.047
		l-0.027,46.092l-0.027-46.092l-0.015-23.047l-0.006-11.522l-0.004-5.762c-0.037-0.94,0.061-2.004,0.753-2.741
		c0.677-0.734,1.708-1.006,2.674-0.97h-0.006l13.271-0.03l13.27,0.03L193.02,55.418z"/>
</g>
</svg>
